<svg id="レイヤー_1" data-name="レイヤー 1" xmlns="http://www.w3.org/2000/svg" viewBox="0 0 45 44">
  <defs>
    <style>
      .cls-1 {
        fill: #26bae9;
      }

      .cls-2 {
        fill: #fff;
      }
    </style>
  </defs>
  <g>
    <rect class="cls-1" x="117.75" y="182.36" width="45" height="44" rx="6.29" transform="translate(162.75 226.36) rotate(-180)"/>
    <g>
      <path class="cls-2" d="M133.51,201h23.62a0,0,0,0,1,0,0v6.81a0,0,0,0,1,0,0H133.51a1.56,1.56,0,0,1-1.56-1.56v-3.69a1.56,1.56,0,0,1,1.56-1.56Z" transform="translate(171.34 226.36) rotate(-180)"/>
      <path class="cls-2" d="M123.81,203.29l10.76-10.76a1.53,1.53,0,0,1,2.15,0l2.67,2.67a1.51,1.51,0,0,1,0,2.14L135.77,201h7.66a4.82,4.82,0,0,0,0,6.81h-7.66l3.62,3.61a1.51,1.51,0,0,1,0,2.14l-2.67,2.67a1.51,1.51,0,0,1-2.15,0l-10.76-10.76A1.51,1.51,0,0,1,123.81,203.29Z" transform="translate(-117.75 -182.36)"/>
    </g>
  </g>
</svg>
