<svg id="レイヤー_1" xmlns="http://www.w3.org/2000/svg" viewBox="0 0 530.4 68.3"><style>.st0{fill:#e60012}</style><path d="M331.2 25.2h-.2c.1-.1.1-.1.2 0z"/><path d="M342 63.1v-34c0-1.5-.5-3.9-4-3.9h-6.9.2-.3.1c-.5-.1-1.8-.1-2.8.8-.7.6-1 1.4-1 2.4v11.5s-.1 1.1.6 1.9c.7.9 1.9.9 1.9.9h8.5v20.2s0 .3-.5.4h-2.4s-1.7-.1-1.7 1.6c-.1 1.4 1 1.9 1.7 1.9s2.3.1 2.3.1c1.8.1 2.4-.3 3.1-.9 1.3-.8 1.2-2.6 1.2-2.9zm-3.7-24.3c0 .2-.2.3-.3.3h-6.7c-.2 0-.3-.2-.3-.3v-9.6c0-.2.2-.3.3-.3h6.7c.2 0 .3.2.3.3v9.6z"/><path class="st0" d="M143.5 9.5h-18.9c-.1 0-.2.1-.2.2v58c0 .1.1.2.2.2h18.9c.1 0 .2-.1.2-.2v-58c.1-.1 0-.2-.2-.2zm0-9.5h-18.9c-.1 0-.2.1-.2.2V6c0 .1.1.2.2.2h18.9c.1 0 .2-.1.2-.2V.2c.1-.1 0-.2-.2-.2zM35.3 9.6H17.7V.3c0-.1-.1-.2-.2-.2H.2C.1 0 0 .1 0 .2v48.2C0 56.8 4.3 68 18.9 68h16.3c.1 0 .2-.1.2-.2V54.9c0-.1-.1-.2-.2-.2H24.3c-5 0-6.5-4.3-6.6-7V23h17.6c.1 0 .2-.1.2-.2v-13c.1-.1 0-.2-.2-.2zM117 6V.2c0-.1-.1-.2-.2-.2H99.6c-.1 0-.2.1-.2.2v54.3H62.7c-3.6-.4-5.7-4-5.7-7.7V31.2c0-4 1.4-8.4 8.2-8.4H94c.1 0 .2-.1.2-.2V9.8c0-.1-.1-.2-.2-.2H59.9c-12.3 0-20.1 8.2-20.1 18.3v22.7c0 9.4 7.6 17.1 17 17.2h60.1c.1 0 .2-.1.2-.2v-5.8L117 6z"/><path d="M164.1 26.1v40c0 1 .8 1.8 1.8 1.8s1.8-.8 1.8-1.8v-40c0-1-.8-1.8-1.8-1.8-1-.1-1.8.7-1.8 1.8zm74.7 37.5c-.6-.1-1.7-.3-1.7-.3-1-.2-2 .3-2.2 1.2-.3.9.1 1.8 1 2.2.3.1 1 .3 2.8.5 1.6.2 2.5-.4 3.1-1 1.1-1.1 1-3.2 1-3.1l.1-37.4c0-1-.8-1.8-1.8-1.8s-1.8.8-1.8 1.8l-.2 37.3c.1 0 .1.6-.3.6zm-58.6-38.1v14.3c0 1 .8 1.8 1.8 1.8s1.8-.8 1.8-1.8V25.5c0-1-.8-1.8-1.8-1.8-1.1 0-1.8.8-1.8 1.8z"/><path d="M174.4 32.4c-1 0-1.8.8-1.8 1.8s.8 1.8 1.8 1.8h15.5c1 0 1.8-.8 1.8-1.8s-.8-1.8-1.8-1.8h-15.5zm0 17.5c-1 0-1.8.8-1.8 1.8s.8 1.8 1.8 1.8h15.5c1 0 1.8-.8 1.8-1.8s-.8-1.8-1.8-1.8h-15.5zm0 6.3c-1 0-1.8.8-1.8 1.8s.8 1.8 1.8 1.8h15.5c1 0 1.8-.8 1.8-1.8s-.8-1.8-1.8-1.8h-15.5z"/><path d="M174.4 43.7c-1 0-1.8.8-1.8 1.8v20.4c0 1 .8 1.8 1.8 1.8s1.8-.8 1.8-1.8V47.4H188v15.4c0 .3-.1.9-.4 1.1-.3.2-1.4.8-4.8-.3-1-.3-2 .2-2.3 1.1-.3 1 .2 2 1.1 2.3 3.8 1.2 6.6 1.1 8.3-.3 2-1.7 1.7-4.3 1.7-4.5v.3-16.9c0-1-.8-1.8-1.8-1.8h-15.4zM160 34.6c0 .1 0 8-1 12.2-.3 1 .3 2 1.3 2.2 1 .3 2-.3 2.2-1.3 1.1-4.7 1.1-12.8 1.1-13.1 0-1-.8-1.8-1.8-1.8-1-.1-1.8.7-1.8 1.8zm8.2-2.2c-.8.3-1.1 1.1-.9 1.8 0 0 1.1 3.2 1.8 8.1.1.8.9 1.3 1.7 1.2.8-.1 1.3-.9 1.2-1.7-.7-5.2-1.9-8.6-2-8.7-.3-.6-1.1-1-1.8-.7zm5-5.5c-1 0-1.8.8-1.8 1.8s.8 1.8 1.8 1.8h17.9c1 0 1.8-.8 1.8-1.8s-.8-1.8-1.8-1.8h-17.9z"/><path d="M173.2 38.2c-1 0-1.8.8-1.8 1.8s.8 1.8 1.8 1.8h18.3c1 0 1.8-.8 1.8-1.8s-.8-1.8-1.8-1.8h-18.3zm31.2-12.7v12.6c0 1 .8 1.8 1.8 1.8s1.8-.8 1.8-1.8V25.5c0-1-.8-1.8-1.8-1.8s-1.8.8-1.8 1.8z"/><path d="M199.7 28.4c-1 0-1.8.8-1.8 1.8s.8 1.8 1.8 1.8h13.2c1 0 1.8-.8 1.8-1.8s-.8-1.8-1.8-1.8h-13.2zm-.8 8c-1 0-1.8.8-1.8 1.8s.8 1.8 1.8 1.8h14.7c1 0 1.8-.8 1.8-1.8s-.8-1.8-1.8-1.8h-14.7zm5.5 12.3v16.9c0 1 .8 1.8 1.8 1.8s1.8-.8 1.8-1.8V48.7c0-1-.8-1.8-1.8-1.8s-1.8.9-1.8 1.8zm71.1-5.2v22.4c0 1 .8 1.8 1.8 1.8s1.8-.8 1.8-1.8V43.5c0-1-.8-1.8-1.8-1.8-1.1-.1-1.8.8-1.8 1.8z"/><path d="M199.5 54.5c-1 0-1.8.8-1.8 1.8s.8 1.8 1.8 1.8h13.2c1 0 1.8-.8 1.8-1.8s-.8-1.8-1.8-1.8h-13.2zm-.6-7.7c-1 0-1.8.8-1.8 1.8s.8 1.8 1.8 1.8h14.7c1 0 1.8-.8 1.8-1.8s-.8-1.8-1.8-1.8h-14.7z"/><path d="M201.7 37.5c-1 .2-1.7 1-1.5 2.1l1.3 8.5c.2 1 1 1.7 2.1 1.5 1-.2 1.7-1 1.5-2.1l-1.3-8.5c-.2-1-1.2-1.7-2.1-1.5zm7.2 1.4l-1.3 8.5c-.2 1 .5 1.9 1.5 2.1 1 .2 1.9-.5 2.1-1.5l1.3-8.5c.2-1-.5-1.9-1.5-2.1-1-.1-1.9.6-2.1 1.5zm16.1-3.1c-1 0-2.4-.1-2.4-.1s-1.6.1-1.7 1.7c-.1 1.9 1.6 2 1.6 2l3.6.2c3.8 0 3.9-10.1 3.9-10.1 0-1.5-.6-2.4-1.2-2.9-1.3-1.1-3.1-1-3.4-1h.2-6.4c-.2 0-1.3 0-2.4 1-.5.5-1.2 1.5-1.2 3.1V66c0 1 .8 1.8 1.8 1.8s1.8-.8 1.8-1.8V29.1h6.5s.4 0 .4.3c0 1.9-.4 4.5-1 5.9.2.5-.1.5-.1.5zm-5.9-6.8zm101.8-3.9h-.3.3zm3.8 3.2c0-1-.3-1.8-1-2.4-1-.9-2.3-.9-2.8-.8h.1-.3.2-6.9c-3.5 0-4 2.4-4 3.9v36.8c0 1 .8 1.8 1.8 1.8s1.8-.8 1.8-1.8V42.7h7.7c1.4 0 2.1-.3 2.6-.9.6-.6.7-1.4.7-2v-1.2c.1.1.1-10.3.1-10.3zM321 38.7c0 .2-.2.3-.3.3H314c-.2 0-.3-.2-.3-.3v-9.6c0-.2.2-.3.3-.3h6.7c.2 0 .3.2.3.3v9.6z"/><path d="M226.4 46.1v.2c-.1 3.1-2.4 12.4-7.5 17-.4.3-.6.9-.6 1.4 0 .4.2.9.4 1.2.7.8 1.8.8 2.6.2 5.8-5.2 8.6-15.3 8.7-19.5.1-1.8-.6-2.9-1.2-3.4-1.1-1-2.6-.8-2.5-.8h-7.4c-1 0-1.8.8-1.8 1.8s.8 1.8 1.8 1.8h7.2c0-.3.3-.3.3.1z"/><path d="M221 43.1c-1 .1-1.7 1-1.7 1.9 0 .6 1 14.2 8.7 21.2.7.7 1.9.6 2.6-.1.7-.7.6-1.9-.1-2.6-6.8-6.2-8-18.4-8-18.5-.1-1-.5-2-1.5-1.9zm14.8-9.2c-1 0-1.8.8-1.8 1.8s.8 1.8 1.8 1.8h9.6c1 0 1.8-.8 1.8-1.8s-.8-1.8-1.8-1.8h-9.6zm8.4 10.4s-1.1 1-3.9 2.2c-3 1.2-5 1.7-5 1.7-1 .3-1.6 1.2-1.4 2.2.3 1 1.2 1.6 2.2 1.4.1 0 2.3-.5 5.6-1.9 3.4-1.4 4.9-2.8 5-2.9.7-.7.7-1.8 0-2.5-.7-.9-1.8-.9-2.5-.2zm4-14.3c-1 0-1.8.8-1.8 1.8s.8 1.8 1.8 1.8h18c1 0 1.8-.8 1.8-1.8s-.8-1.8-1.8-1.8h-18zm34.4 2.5c-1 0-1.8.8-1.8 1.8s.8 1.8 1.8 1.8h11.5c1 0 1.8-.8 1.8-1.8s-.8-1.8-1.8-1.8h-11.5zm14.4-6.1c-1 0-1.8.8-1.8 1.8S296 30 297 30h6.6c1 0 1.8-.8 1.8-1.8s-.8-1.8-1.8-1.8H297zm-.5 11.2c-1 0-1.8.8-1.8 1.8s.8 1.8 1.8 1.8h7.5c1 0 1.8-.8 1.8-1.8s-.8-1.8-1.8-1.8h-7.5z"/><path d="M264.2 40.1l-15.7.1c-1 0-1.8.8-1.8 1.8s.8 1.8 1.8 1.8c0 0 11.1-.1 13.9-.1-.1 2.8-.9 8.8-6.6 14.5-4.5 4.5-8.4 5.1-8.4 5.1-.9.2-1.6 1-1.6 1.8v.3c.2 1 1 1.7 2 1.6.2 0 5.1-.8 10.5-6.1 8.8-8.8 7.6-18.8 7.5-19.1.1-1-.7-1.7-1.6-1.7zm96.2-14.6l-11.5.1c-1 0-1.8.9-1.8 1.8 0 1 .9 1.8 1.8 1.8 0 0 7.2-.1 9.8-.1-.1 1.8-.7 5-4 8.1-3.8 3.7-7.2 4.8-7.2 4.8-.8.3-1.3 1-1.3 1.7 0 .2 0 .3.1.5.3 1 1.3 1.5 2.3 1.2.2-.1 4.1-1.3 8.7-5.7 6.3-6 5.1-12.7 5.1-12.9-.3-.6-1.1-1.3-2-1.3z"/><path d="M255.3 25.9v15.5c0 1 .8 1.8 1.8 1.8s1.8-.8 1.8-1.8V25.9c0-1-.8-1.8-1.8-1.8s-1.8.7-1.8 1.8zm31.3 0v39.2c0 1 .8 1.8 1.8 1.8s1.8-.8 1.8-1.8V25.9c0-1-.8-1.8-1.8-1.8s-1.8.7-1.8 1.8zm12.2 37.9c-2.2-.1-3.4-.7-3.4-.7-1-.3-2 0-2.4 1-.4 1 0 2 1 2.4.2.1 1.8.8 4.6 1 1.7.1 2.7-.5 3.2-1 1.1-1.1 1.1-2.6 1.1-2.9V40.8c0-1-.8-1.8-1.8-1.8s-1.8.8-1.8 1.8v22.6s0 .4-.5.4zm-47.9-17.7c-1 .3-1.6 1.2-1.3 2.2.1.5 3.2 12.6 16.3 18.7.9.4 2 0 2.4-.9.4-.9 0-2-.9-2.4-11.5-5.3-14.3-16.2-14.3-16.3-.3-1-1.3-1.5-2.2-1.3zm27.1-9.9c-2.1 7-6.6 11.6-6.6 11.6-.7.7-.7 1.9.1 2.6.7.7 1.9.7 2.6-.1.2-.2 5.1-5.3 7.4-13.1.3-1-.3-2-1.2-2.3-1-.3-2 .4-2.3 1.3zm5.2 3.8c-1 0-1.8.9-1.7 1.9.3 10.1-1 17.2-1.1 17.3-.2 1 .4 1.9 1.4 2.2 1 .2 1.9-.4 2.2-1.4.1-.3 1.5-7.6 1.1-18.1 0-1.2-.8-2-1.9-1.9z"/><path d="M292.9 40.1c-1 .2-1.7 1-1.6 2.1 1.4 9.4 1.4 15.3 1.4 15.4 0 1 .8 1.8 1.8 1.8s1.8-.8 1.8-1.8c0-.3 0-6.3-1.4-15.9-.1-1-1.1-1.7-2-1.6zm-16-14.8c-2.2 5.2-4.5 7.7-4.5 7.7-.7.7-.7 1.8 0 2.6.7.7 1.8.7 2.5 0 .1-.1 2.9-3 5.3-8.9.3-1-.1-2-1-2.4-.8-.3-1.8.1-2.3 1zm17.1-1l1.6 4.6c.3.8-.2 1.5-1 1.7-.8.3-1.6-.3-1.8-1l-1.5-4.4s-.4-1.3.8-1.7c1.5-.4 1.9.8 1.9.8zm18 7.7c-1 0-1.8.8-1.8 1.8s.8 1.8 1.8 1.8h10.7c1 0 1.8-.8 1.8-1.8s-.8-1.8-1.8-1.8H312zm17.2 0c-1 0-1.8.8-1.8 1.8s.8 1.8 1.8 1.8h10.7c1 0 1.8-.8 1.8-1.8s-.8-1.8-1.8-1.8h-10.7zm-12.3 12.9c-1 0-1.8.8-1.8 1.8s.8 1.8 1.8 1.8h18.4c1 0 1.8-.8 1.8-1.8s-.8-1.8-1.8-1.8h-18.4zm-.4 7.8c-1 0-1.8.8-1.8 1.8s.8 1.8 1.8 1.8h19c1 0 1.8-.8 1.8-1.8s-.8-1.8-1.8-1.8h-19z"/><path d="M322.1 45.1c-1 .1-1.7 1-1.7 1.9.3 3.8.3 10.5-.7 12.6-1.3 2.6-3.3 3.6-3.4 3.7-.9.4-1.3 1.5-.9 2.4.4.9 1.5 1.3 2.4.9.2-.1 3.2-1.5 5.2-5.3 1.8-3.7 1.1-13.4 1-14.5.1-1.1-.8-1.8-1.9-1.7zm6.5 1.9v18c0 1 .8 1.8 1.8 1.8s1.8-.8 1.8-1.8V47c0-1-.8-1.8-1.8-1.8-.9-.1-1.8.8-1.8 1.8zm26.9-7.6c-1 0-1.8.8-1.8 1.8s.8 1.8 1.8 1.8h16.1c1 0 1.8-.8 1.8-1.8s-.8-1.8-1.8-1.8h-16.1zm-7 9.1c-1 0-1.8.8-1.8 1.8s.8 1.8 1.8 1.8h29.9c1 0 1.8-.8 1.8-1.8s-.8-1.8-1.8-1.8h-29.9z"/><path d="M357 41.8V52c0 8.7-8.8 11.6-9.2 11.7-1 .3-1.5 1.3-1.2 2.3.3 1 1.3 1.5 2.3 1.2 4-1.2 11.7-6.1 11.7-15.2V41.8c0-1-.8-1.8-1.8-1.8-.9 0-1.8.8-1.8 1.8zm19.4 20.8l.3-5.4c.1-1 1-1.7 1.9-1.7 1 .1 1.7 1 1.7 1.9 0 0-.3 5.9-.3 5.7 0 2.9-2.4 4.2-3.8 4.2H371c-2 0-3.1-.8-3.8-1.5-1.4-1.6-1.1-3.7-1.1-3.8v.3-19.5c0-1 .8-1.8 1.8-1.8s1.8.8 1.8 1.8v19.3s0 1.3 1.2 1.5h4.7c.1 0 .8 0 .8-1zm-27-30.1c-.6.8-.4 1.9.3 2.5 0 0 2.3 1.7 3.5 4.3.4.9 1.6 1.3 2.4.8.9-.4 1.3-1.6.8-2.4-1.7-3.2-4.4-5.4-4.5-5.5-.7-.7-1.9-.6-2.5.3zm23-7.2l-5.2 5.5c-.7.7-.6 1.9.1 2.6.7.7 1.9.6 2.6-.1l5.2-5.5c.7-.7.6-1.9-.1-2.6-.7-.7-1.9-.7-2.6.1zm4.4 4.5l-5.6 7.3c-.6.8-.4 1.9.3 2.5s1.9.4 2.5-.3l5.6-7.3c.6-.8.4-1.9-.3-2.5-.8-.6-1.9-.5-2.5.3z"/><path d="M365.2 24.7c-1 .2-1.7 1.1-1.4 2.2.1.3 1.2 5.8 4.8 10.8 3.3 4.6 8.9 7.5 9.1 7.6.9.4 2 .1 2.4-.8s.1-2-.8-2.4c-.1 0-5.1-2.6-7.9-6.6-3.1-4.4-4.2-9.3-4.2-9.4 0-1-1-1.7-2-1.4zm20.5 8.3c-1 0-1.8.8-1.8 1.8s.8 1.8 1.8 1.8h9.2c1 0 1.8-.8 1.8-1.8s-.8-1.8-1.8-1.8h-9.2zm14.7-1.4c-1 0-1.8.8-1.8 1.8s.8 1.8 1.8 1.8h15c1 0 1.8-.8 1.8-1.8s-.8-1.8-1.8-1.8h-15zm-2.5 10.3c-1 0-1.8.8-1.8 1.8s.8 1.8 1.8 1.8h17.7c1 0 1.8-.8 1.8-1.8s-.8-1.8-1.8-1.8h-17.7z"/><path d="M389.1 26.3v40.1c0 1 .8 1.8 1.8 1.8s1.8-.8 1.8-1.8V26.3c0-1-.8-1.8-1.8-1.8s-1.8.9-1.8 1.8zm16.1-.5v40.6c0 1 .8 1.8 1.8 1.8s1.8-.8 1.8-1.8V25.8c0-1-.8-1.8-1.8-1.8s-1.8.8-1.8 1.8z"/><path d="M389.2 36.8c0 .1-1.7 9.5-5.9 16.4-.5.9-.3 2 .6 2.5.9.5 2 .3 2.5-.6 4.6-7.4 6.4-17.2 6.5-17.7.2-1-.5-1.9-1.5-2.1-1.1-.1-2 .5-2.2 1.5zm14 7.5c0 .1-1.7 9.3-7.8 16.4-.7.8-.5 1.9.2 2.5.8.7 1.9.5 2.5-.2 6.8-7.9 8.5-17.7 8.6-18.2.2-1-.5-1.9-1.5-2.1-.9-.1-1.8.5-2 1.6zm5.9-1.6c-1 .2-1.7 1-1.6 2.1.1.3 1.3 8.9 8 18.2.6.8 1.7 1 2.5.4s1-1.7.4-2.5c-6-8.6-7.3-16.5-7.3-16.6 0-1-1-1.7-2-1.6z"/><path d="M390.4 35.5c-1 .2-1.7 1.1-1.4 2.2.1.3 1.4 6.7 5.4 13.2.5.9 1.7 1.1 2.5.6.9-.5 1.1-1.7.6-2.5-3.7-5.9-5-12-5-12.1-.1-1-1.1-1.6-2.1-1.4zm8.9-9.3c0 .1-.1 5-2.9 11.4-.4 1 0 2 1 2.4 1 .4 2 0 2.4-1 3.1-7.2 3.2-12.6 3.2-12.9 0-1-.8-1.8-1.8-1.8-1.1.1-1.9.9-1.9 1.9zm23.8 6.5c-1 0-1.8.8-1.8 1.8s.8 1.8 1.8 1.8h30.3c1 0 1.8-.8 1.8-1.8s-.8-1.8-1.8-1.8h-30.3zm.9 11.2c-1 0-1.8.8-1.8 1.8s.8 1.8 1.8 1.8h15.1c1 0 1.8-.8 1.8-1.8s-.8-1.8-1.8-1.8H424zm15.7 13.6c-7.8 3.5-17 4.4-17 4.4-1 .1-1.7 1-1.7 2 .1 1 1 1.7 2 1.7.4 0 9.9-1 18.2-4.7 1-.4 1.3-1.5.9-2.4-.3-1-1.4-1.5-2.4-1z"/><path d="M429.5 46.7v14.5c0 1 .8 1.8 1.8 1.8s1.8-.8 1.8-1.8V46.7c0-1-.8-1.8-1.8-1.8-.9 0-1.8.8-1.8 1.8zm22 15.5c.3-1.2.3-3 .3-5 0-.9 0-1.7-.1-2.5v-.1c0-1 .8-1.7 1.7-1.8 1-.1 1.8.7 1.9 1.7.4 7.5-.5 11.8-3 12.5s-4.3-1.8-5.7-4.2c-6.7-11.3-5.3-35.9-5.2-37 .1-1 1-1.7 1.9-1.7 1 .1 1.7.9 1.7 1.8v.1c0 .1-.2 2.5-.2 6.2 0 8 .7 21.6 4.9 28.7.3.6.6 1 1 1.5 0 0 .3.3.4.3.4-.1.4-.5.4-.5zm-3.7-37.7c-.8.6-.9 1.8-.3 2.5 0 0 1.6 1.9 2.9 5.1.3 1 1.5 1.4 2.4 1 1-.3 1.4-1.5 1-2.4-1.5-3.7-3.4-5.9-3.4-6-.7-.7-1.8-.8-2.6-.2zm26 .3c-3.8 4.5-14.7 12.3-14.8 12.4-.8.6-1 1.7-.4 2.5s1.7 1 2.5.4c.4-.3 9.4-6.9 14.2-11.7 3.9 3.3 13.6 11.4 14.8 12.1.9.5 2 .3 2.5-.6.5-.9.3-2-.6-2.5-1-.6-10.1-8.2-15.7-12.9-.8-.6-1.9-.5-2.5.3z"/><path d="M466.3 38.2c-1 0-1.8.8-1.8 1.8s.8 1.8 1.8 1.8h17.4c1 0 1.8-.8 1.8-1.8s-.8-1.8-1.8-1.8h-17.4zm-5.8 9.8c-1 0-1.8.8-1.8 1.8s.8 1.8 1.8 1.8h30.2c1 0 1.8-.8 1.8-1.8s-.8-1.8-1.8-1.8h-30.2z"/><path d="M468.5 50.5c-1 3.9-3.1 10.8-4.1 12.4-.5.9-.3 2 .5 2.5s2 .3 2.5-.5c1.7-2.7 4.3-12.4 4.5-13.5.3-1-.3-2-1.3-2.2-.8-.3-1.8.3-2.1 1.3z"/><path d="M487.1 60.1L461 62.8c-1 .1-1.7 1-1.7 2 .1 1 1 1.7 2 1.7l26.1-2.7c1-.1 1.7-1 1.7-2-.1-1.1-1-1.8-2-1.7z"/><path d="M484.7 53.9s2 2.6 3.3 5c1.2 2.2 3.1 6.2 3.1 6.4.4 1 0 2-1 2.4-1 .4-2 0-2.4-1 0 0-1.7-3.9-3-5.9l-3.2-4.8s-.7-1.2.5-2.3c1.5-1.1 2.7.2 2.7.2zm17.2-28v7.3c0 1 .8 1.8 1.8 1.8s1.8-.8 1.8-1.8v-7.3c0-1-.8-1.8-1.8-1.8s-1.8.7-1.8 1.8zm0 20.4v20.1c0 1 .8 1.8 1.8 1.8s1.8-.8 1.8-1.8V46.3c0-1-.8-1.8-1.8-1.8-1-.1-1.8.7-1.8 1.8z"/><path d="M498 31.6c-1 0-1.8.8-1.8 1.8s.8 1.8 1.8 1.8h8c-.6 3-2.6 9.3-9.9 16.6-.3.3-.5.8-.5 1.3 0 .4.2 1 .5 1.3.7.7 1.8.7 2.6 0 11.2-11.2 11.2-20.6 11.2-21 0-1-.8-1.8-1.8-1.8H498z"/><path d="M503.4 42.5c-.8.6-.9 1.8-.3 2.5 0 0 2.5 3.1 5 7.3.5.9 1.6 1.2 2.4.7.9-.5 1.2-1.6.7-2.4-2.6-4.5-5.2-7.8-5.3-7.9-.6-.8-1.7-.9-2.5-.2zm8.4-6.7c-1 0-1.8.8-1.8 1.8s.8 1.8 1.8 1.8h15.8c1 0 1.8-.8 1.8-1.8s-.8-1.8-1.8-1.8h-15.8zm-.6 27.1c-1 0-1.8.8-1.8 1.8s.8 1.8 1.8 1.8h17.4c1 0 1.8-.8 1.8-1.8s-.8-1.8-1.8-1.8h-17.4z"/><path d="M518.1 25.6v38.6c0 1 .8 1.8 1.8 1.8s1.8-.8 1.8-1.8V25.6c0-1-.8-1.8-1.8-1.8s-1.8.8-1.8 1.8z"/></svg>