<?xml version="1.0" encoding="UTF-8" standalone="no"?>
<svg
   xmlns:dc="http://purl.org/dc/elements/1.1/"
   xmlns:cc="http://creativecommons.org/ns#"
   xmlns:rdf="http://www.w3.org/1999/02/22-rdf-syntax-ns#"
   xmlns:svg="http://www.w3.org/2000/svg"
   xmlns="http://www.w3.org/2000/svg"
   viewBox="0 0 806.23865 296.27066"
   height="296.27066"
   width="806.23865"
   xml:space="preserve"
   id="svg2"
   version="1.1"><metadata
     id="metadata8"><rdf:RDF><cc:Work
         rdf:about=""><dc:format>image/svg+xml</dc:format><dc:type
           rdf:resource="http://purl.org/dc/dcmitype/StillImage" /></cc:Work></rdf:RDF></metadata><defs
     id="defs6"><clipPath
       id="clipPath22"
       clipPathUnits="userSpaceOnUse"><path
         id="path20"
         d="M 0,222.203 H 604.679 V 0 H 0 Z" /></clipPath><linearGradient
       id="linearGradient72"
       spreadMethod="pad"
       gradientTransform="matrix(-174.78723,0,0,174.78723,192.07904,129.26587)"
       gradientUnits="userSpaceOnUse"
       y2="0"
       x2="1"
       y1="0"
       x1="0"><stop
         id="stop56"
         offset="0"
         style="stop-opacity:1;stop-color:#009844" /><stop
         id="stop58"
         offset="0.0153525"
         style="stop-opacity:1;stop-color:#009844" /><stop
         id="stop60"
         offset="0.19"
         style="stop-opacity:1;stop-color:#fff000" /><stop
         id="stop62"
         offset="0.38"
         style="stop-opacity:1;stop-color:#e50012" /><stop
         id="stop64"
         offset="0.567587"
         style="stop-opacity:1;stop-color:#e3007f" /><stop
         id="stop66"
         offset="0.752014"
         style="stop-opacity:1;stop-color:#1d2087" /><stop
         id="stop68"
         offset="0.927189"
         style="stop-opacity:1;stop-color:#009fe8" /><stop
         id="stop70"
         offset="1"
         style="stop-opacity:1;stop-color:#009fe8" /></linearGradient></defs><g
     transform="matrix(1.3333333,0,0,-1.3333333,0,296.27067)"
     id="g10"><g
       transform="translate(264.2299,132.8398)"
       id="g12"><path
         id="path14"
         style="fill:#231815;fill-opacity:1;fill-rule:nonzero;stroke:none"
         d="m 0,0 h -33.892 v -43.768 h 31.2 v -9.21 h -31.2 v -53.271 H -46.793 V 9.06 L 0,9.06 Z" /></g><g
       id="g16"><g
         clip-path="url(#clipPath22)"
         id="g18"><g
           transform="translate(332.2846,26.5903)"
           id="g24"><path
             id="path26"
             style="fill:#231815;fill-opacity:1;fill-rule:nonzero;stroke:none"
             d="m 0,0 h -12.165 v 1.988 c -4.947,-0.542 -9.869,-1.051 -14.758,-1.545 -5.94,-0.593 -10.869,-0.885 -14.762,-0.885 -6.687,0 -10.034,2.654 -10.034,7.957 v 64.183 h 12.173 V 8.767 l 27.381,0.593 v 62.338 l 12.165,0 z" /></g><g
           transform="translate(404.3315,26.5903)"
           id="g28"><path
             id="path30"
             style="fill:#231815;fill-opacity:1;fill-rule:nonzero;stroke:none"
             d="M 0,0 H -12.345 V 62.925 L -39.553,62.338 V 0 h -12.344 v 71.698 h 12.344 v -1.995 c 4.829,0.486 9.689,1.007 14.578,1.545 5.94,0.593 10.829,0.887 14.67,0.887 C -3.435,72.135 0,69.458 0,64.1 Z" /></g><g
           transform="translate(474.9829,26.5903)"
           id="g32"><path
             id="path34"
             style="fill:#231815;fill-opacity:1;fill-rule:nonzero;stroke:none"
             d="M 0,0 H -13.461 L -38.345,36.547 V 0 h -12.344 v 115.31 h 12.344 V 42.073 l 23.209,29.625 H -1.86 v -0.3 L -28.132,39.711 Z" /></g><path
           id="path36"
           style="fill:#231815;fill-opacity:1;fill-rule:nonzero;stroke:none"
           d="m 500.888,26.59 h -12.165 v 71.698 h 12.165 z m 0.187,87.387 h -12.531 v 12.382 h 12.531 z" /><g
           transform="translate(554.3647,26.5903)"
           id="g38"><path
             id="path40"
             style="fill:#231815;fill-opacity:1;fill-rule:nonzero;stroke:none"
             d="m 0,0 h -17.549 c -6.931,0 -10.396,2.775 -10.396,8.324 v 54.75 H -38.81 v 8.624 h 10.865 v 22.321 h 12.166 V 71.698 H 0 V 63.074 H -15.779 V 8.617 L 0,8.617 Z" /></g><path
           id="path42"
           style="fill:#231815;fill-opacity:1;fill-rule:nonzero;stroke:none"
           d="m 585.928,26.59 h -13.92 v 12.967 h 13.92 z m 0.187,115.317 -2.872,-89.375 H 574.7 l -2.878,89.375 z" /></g></g><g
       id="g44"><g
         id="g46"><g
           id="g52"><g
             id="g54"><path
               id="path74"
               style="fill:url(#linearGradient72);stroke:none"
               d="m 166.898,184.564 c 0,-6.54 5.294,-11.837 11.835,-11.837 v 0 c 6.534,0 11.834,5.297 11.834,11.837 v 0 c 0,6.535 -5.3,11.838 -11.834,11.838 v 0 c -6.541,0 -11.835,-5.303 -11.835,-11.838 m -36.935,0 c 0,-6.54 5.3,-11.837 11.835,-11.837 v 0 c 6.539,0 11.838,5.297 11.838,11.837 v 0 c 0,6.535 -5.299,11.838 -11.838,11.838 v 0 c -6.535,0 -11.835,-5.303 -11.835,-11.838 m -36.939,0 c 0,-6.54 5.3,-11.837 11.84,-11.837 v 0 c 6.539,0 11.838,5.297 11.838,11.837 v 0 c 0,6.535 -5.299,11.838 -11.838,11.838 v 0 c -6.54,0 -11.84,-5.303 -11.84,-11.838 m -36.93,0 c 0,-6.54 5.295,-11.837 11.834,-11.837 v 0 c 6.54,0 11.844,5.297 11.844,11.837 v 0 c 0,6.535 -5.304,11.838 -11.844,11.838 v 0 c -6.539,0 -11.834,-5.303 -11.834,-11.838 m -36.935,0 c 0,-6.54 5.3,-11.837 11.844,-11.837 v 0 c 6.535,0 11.835,5.297 11.835,11.837 v 0 c 0,6.535 -5.3,11.838 -11.835,11.838 v 0 c -6.544,0 -11.844,-5.303 -11.844,-11.838 m 147.739,-36.646 c 0,-6.536 5.294,-11.835 11.835,-11.835 v 0 c 6.534,0 11.834,5.299 11.834,11.835 v 0 c 0,6.539 -5.3,11.839 -11.834,11.839 v 0 c -6.541,0 -11.835,-5.3 -11.835,-11.839 m -36.935,0 c 0,-6.536 5.3,-11.835 11.835,-11.835 v 0 c 6.539,0 11.838,5.299 11.838,11.835 v 0 c 0,6.539 -5.299,11.839 -11.838,11.839 v 0 c -6.535,0 -11.835,-5.3 -11.835,-11.839 m -36.939,0 c 0,-6.536 5.3,-11.835 11.84,-11.835 v 0 c 6.539,0 11.838,5.299 11.838,11.835 v 0 c 0,6.539 -5.299,11.839 -11.838,11.839 v 0 c -6.54,0 -11.84,-5.3 -11.84,-11.839 m -36.93,0 c 0,-6.536 5.295,-11.835 11.834,-11.835 v 0 c 6.54,0 11.844,5.299 11.844,11.835 v 0 c 0,6.539 -5.304,11.839 -11.844,11.839 v 0 c -6.539,0 -11.834,-5.3 -11.834,-11.839 m -36.935,0 c 0,-6.536 5.3,-11.835 11.844,-11.835 v 0 c 6.535,0 11.835,5.299 11.835,11.835 v 0 c 0,6.539 -5.3,11.839 -11.835,11.839 v 0 c -6.544,0 -11.844,-5.3 -11.844,-11.839 m 147.739,-36.643 c 0,-6.534 5.294,-11.839 11.835,-11.839 v 0 c 6.534,0 11.834,5.305 11.834,11.839 v 0 c 0,6.538 -5.3,11.838 -11.834,11.838 v 0 c -6.541,0 -11.835,-5.3 -11.835,-11.838 m -36.935,0 c 0,-6.534 5.3,-11.839 11.835,-11.839 v 0 c 6.539,0 11.838,5.305 11.838,11.839 v 0 c 0,6.538 -5.299,11.838 -11.838,11.838 v 0 c -6.535,0 -11.835,-5.3 -11.835,-11.838 m -36.939,0 c 0,-6.534 5.3,-11.839 11.84,-11.839 v 0 c 6.539,0 11.838,5.305 11.838,11.839 v 0 c 0,6.538 -5.299,11.838 -11.838,11.838 v 0 c -6.54,0 -11.84,-5.3 -11.84,-11.838 m -36.93,0 c 0,-6.534 5.295,-11.839 11.834,-11.839 v 0 c 6.54,0 11.844,5.305 11.844,11.839 v 0 c 0,6.538 -5.304,11.838 -11.844,11.838 v 0 c -6.539,0 -11.834,-5.3 -11.834,-11.838 m -36.935,0 c 0,-6.534 5.3,-11.839 11.844,-11.839 v 0 c 6.535,0 11.835,5.305 11.835,11.839 v 0 c 0,6.538 -5.3,11.838 -11.835,11.838 v 0 c -6.544,0 -11.844,-5.3 -11.844,-11.838 M 166.898,74.626 c 0,-6.533 5.294,-11.835 11.835,-11.835 v 0 c 6.534,0 11.834,5.302 11.834,11.835 v 0 c 0,6.542 -5.3,11.84 -11.834,11.84 v 0 c -6.541,0 -11.835,-5.298 -11.835,-11.84 m -36.935,0 c 0,-6.533 5.3,-11.835 11.835,-11.835 v 0 c 6.539,0 11.838,5.302 11.838,11.835 v 0 c 0,6.542 -5.299,11.84 -11.838,11.84 v 0 c -6.535,0 -11.835,-5.298 -11.835,-11.84 m -36.939,0 c 0,-6.533 5.3,-11.835 11.84,-11.835 v 0 c 6.539,0 11.838,5.302 11.838,11.835 v 0 c 0,6.542 -5.299,11.84 -11.838,11.84 v 0 c -6.54,0 -11.84,-5.298 -11.84,-11.84 m -36.93,0 c 0,-6.533 5.295,-11.835 11.834,-11.835 v 0 c 6.54,0 11.844,5.302 11.844,11.835 v 0 c 0,6.542 -5.304,11.84 -11.844,11.84 v 0 c -6.539,0 -11.834,-5.298 -11.834,-11.84 m -36.935,0 c 0,-6.533 5.3,-11.835 11.844,-11.835 v 0 c 6.535,0 11.835,5.302 11.835,11.835 v 0 c 0,6.542 -5.3,11.84 -11.835,11.84 v 0 c -6.544,0 -11.844,-5.298 -11.844,-11.84 M 166.898,37.987 c 0,-6.537 5.294,-11.839 11.835,-11.839 v 0 c 6.534,0 11.834,5.302 11.834,11.839 v 0 c 0,6.535 -5.3,11.839 -11.834,11.839 v 0 c -6.541,0 -11.835,-5.304 -11.835,-11.839 m -36.935,0 c 0,-6.537 5.3,-11.839 11.835,-11.839 v 0 c 6.539,0 11.838,5.302 11.838,11.839 v 0 c 0,6.535 -5.299,11.839 -11.838,11.839 v 0 c -6.535,0 -11.835,-5.304 -11.835,-11.839 m -36.939,0 c 0,-6.537 5.3,-11.839 11.84,-11.839 v 0 c 6.539,0 11.838,5.302 11.838,11.839 v 0 c 0,6.535 -5.299,11.839 -11.838,11.839 v 0 c -6.54,0 -11.84,-5.304 -11.84,-11.839 m -36.93,0 c 0,-6.537 5.295,-11.839 11.834,-11.839 v 0 c 6.54,0 11.844,5.302 11.844,11.839 v 0 c 0,6.535 -5.304,11.839 -11.844,11.839 v 0 c -6.539,0 -11.834,-5.304 -11.834,-11.839 m -36.935,0 c 0,-6.537 5.3,-11.839 11.844,-11.839 v 0 c 6.535,0 11.835,5.302 11.835,11.839 v 0 c 0,6.535 -5.3,11.839 -11.835,11.839 v 0 c -6.544,0 -11.844,-5.304 -11.844,-11.839" /></g></g></g></g></g></svg>