<svg id="レイヤー_1" data-name="レイヤー 1" xmlns="http://www.w3.org/2000/svg" viewBox="0 0 45 44">
  <defs>
    <style>
      .cls-1 {
        fill: #26bae9;
      }

      .cls-2 {
        fill: #fff;
      }
    </style>
  </defs>
  <rect class="cls-1" width="45" height="44" rx="6.29"/>
  <g>
    <path class="cls-2" d="M7.18,18.6H30.8a0,0,0,0,1,0,0V25.4a0,0,0,0,1,0,0H7.18a1.56,1.56,0,0,1-1.56-1.56V20.15A1.56,1.56,0,0,1,7.18,18.6Z"/>
    <path class="cls-2" d="M156.69,203.29l-10.76-10.76a1.53,1.53,0,0,0-2.15,0l-2.67,2.67a1.51,1.51,0,0,0,0,2.14l3.62,3.62h-7.66a4.82,4.82,0,0,1,0,6.81h7.66l-3.62,3.61a1.51,1.51,0,0,0,0,2.14l2.67,2.67a1.51,1.51,0,0,0,2.15,0l10.76-10.76A1.51,1.51,0,0,0,156.69,203.29Z" transform="translate(-117.75 -182.36)"/>
  </g>
</svg>
